<?xml version="1.0" encoding="UTF-8" standalone="no"?>
<!-- Created with Inkscape (http://www.inkscape.org/) -->

<svg
   width="210mm"
   height="297mm"
   viewBox="0 0 210 297"
   version="1.1"
   id="svg63208"
   xml:space="preserve"
   inkscape:version="1.2.2 (732a01da63, 2022-12-09)"
   sodipodi:docname="dibujo.svg"
   xmlns:inkscape="http://www.inkscape.org/namespaces/inkscape"
   xmlns:sodipodi="http://sodipodi.sourceforge.net/DTD/sodipodi-0.dtd"
   xmlns="http://www.w3.org/2000/svg"
   xmlns:svg="http://www.w3.org/2000/svg"><sodipodi:namedview
     id="namedview63210"
     pagecolor="#ffffff"
     bordercolor="#000000"
     borderopacity="0.25"
     inkscape:showpageshadow="2"
     inkscape:pageopacity="0.0"
     inkscape:pagecheckerboard="0"
     inkscape:deskcolor="#d1d1d1"
     inkscape:document-units="mm"
     showgrid="false"
     inkscape:zoom="0.84096521"
     inkscape:cx="-33.295075"
     inkscape:cy="491.69692"
     inkscape:window-width="1920"
     inkscape:window-height="991"
     inkscape:window-x="-9"
     inkscape:window-y="-9"
     inkscape:window-maximized="1"
     inkscape:current-layer="layer1"><inkscape:grid
       type="xygrid"
       id="grid188" /></sodipodi:namedview><defs
     id="defs63205" /><g
     inkscape:groupmode="layer"
     id="layer1"
     inkscape:label="CUERPO 1"
     style="display:inline"><path
       style="display:inline;opacity:1;fill:#95aec5;fill-opacity:1;stroke:#95aec5;stroke-width:2;stroke-linecap:round;stroke-dasharray:none;stroke-opacity:1;paint-order:stroke markers fill"
       d="m 53.734629,167.43437 c -0.243699,2.51688 9.799729,-0.87163 10.225106,0.94386 20.929033,37.03692 78.974295,21.06882 74.863425,3.20807 4.51734,-3.59178 9.57743,-2.99358 12.8691,-2.37545 l -8.26896,29.28228 c -6.37762,4.2236 -20.94046,5.54827 -34.10354,7.36868 l -39.808291,-2.607 -6.57193,-4.79098 c 0,0 -8.667823,-19.1312 -8.667823,-19.76044 0,-0.62924 -0.537087,-11.26902 -0.537087,-11.26902 z"
       id="path69226"
       sodipodi:nodetypes="ccccccccsc"
       transform="translate(0.44493799,0.22246898)" /><path
       style="opacity:1;fill:#1c5d9c;fill-opacity:1;stroke:#1c5d9c;stroke-width:0.1;stroke-dasharray:none;stroke-opacity:1"
       d="m 44.271326,113.19199 c -2.368864,2.80791 9.24448,21.97054 19.989529,25.01686 -14.184754,26.98475 -6.736095,48.00704 2.257368,63.84147 l -9.121227,-5.77707 -6.785303,-6.22913 -6.67407,-9.17684 -4.894318,-11.01222 -1.890987,-14.62733 0.444939,-10.84537 2.057839,-14.62733 z"
       id="path1459"
       sodipodi:nodetypes="ccccccccccc" /><path
       style="opacity:1;fill:#1c5d9c;fill-opacity:1;stroke:#1c5d9c;stroke-width:0.1;stroke-dasharray:none;stroke-opacity:1"
       d="m 141.10095,202.05032 c 7.31356,-17.33277 14.72309,-45.41013 3.1517,-68.49471 18.02218,-13.23826 14.33829,-17.09011 18.24788,-24.22563 l 4.71928,17.93326 1.57309,13.05667 0.23596,12.78139 -0.90452,12.70273 -2.32031,9.00595 -4.0114,7.47219 -7.98344,9.08462 z"
       id="path1515"
       sodipodi:nodetypes="ccccccccccc" /><path
       style="opacity:1;fill:none;stroke:#ffffff;stroke-width:1.4;stroke-dasharray:none;stroke-opacity:1;fill-opacity:1"
       d="M 69.18785,203.47728 C 49.371881,193.3614 37.154451,178.73884 37.152319,152.16878 c 0.407183,-18.18591 4.601178,-27.45371 6.674068,-38.97679 50.131224,23.00977 86.501753,14.50312 118.353493,-4.35303 2.863,10.93369 5.9665,20.74505 7.11901,39.66104 -1.65551,16.48028 2.287,31.97268 -28.25356,53.55032 -17.27827,2.17069 -20.01535,8.03439 -71.85748,1.42696 z"
       id="path1178"
       sodipodi:nodetypes="ccccccc" /></g><g
     inkscape:groupmode="layer"
     id="layer2"
     inkscape:label="BRAZO1"
     style="display:inline"><path
       style="opacity:1;fill:#1c5d9c;fill-opacity:1;stroke:#1c5d9c;stroke-width:0.1;stroke-dasharray:none;stroke-opacity:1"
       d="m 37.416803,152.91291 c -14.615212,1.52415 -16.254408,-11.8472 -9.101126,-20.93039 l 15.652278,-17.37443 c -3.814232,12.47574 -6.462547,23.87986 -6.551152,38.30482 z"
       id="path2972"
       sodipodi:nodetypes="cccc" /></g><g
     inkscape:groupmode="layer"
     id="layer3"
     inkscape:label="BRAZO2"
     style="display:inline"><path
       style="opacity:1;fill:#1c5d9c;fill-opacity:1;stroke:#1c5d9c;stroke-width:0.1;stroke-dasharray:none;stroke-opacity:1"
       d="m 162.84729,110.45585 c 11.35741,10.47011 20.79107,21.63491 24.64008,34.81639 0.35036,3.76277 1.74816,8.04925 -8.84478,6.34037 -3.987,-0.5048 -6.8117,-1.78447 -9.5637,-3.11261 -0.3253,-12.68138 -3.2371,-25.36277 -6.2316,-38.04415 z"
       id="path2975"
       sodipodi:nodetypes="ccccc" /></g><g
     inkscape:groupmode="layer"
     id="layer16"
     inkscape:label="CABEZA"
     style="display:inline"><path
       style="display:inline;opacity:1;fill:#1c5d9c;fill-opacity:1;stroke:#000000;stroke-width:0;stroke-linecap:round;stroke-dasharray:none;stroke-opacity:1;paint-order:stroke markers fill"
       d="m 63.848596,45.049969 c 0,0 11.90209,-17.575051 12.347027,-17.463815 0.444939,0.111233 2.002221,3.559503 2.002221,3.559503 l 0.778642,6.785303 16.351469,-3.503886 12.701735,-0.239918 c 5.33458,1.063061 11.24492,1.577371 15.81642,3.975816 l 13.90267,6.643125 6.52235,6.473002 9.56617,9.566166 5.89542,9.89987 3.78198,17.018875 0.3337,14.34925 -0.50055,1.44605 -7.28587,1.44605 -0.49101,1.33713 C 156.7786,84.014995 147.24505,75.103535 130.20822,74.156621 121.36254,61.686541 109.15493,44.689344 63.848596,45.049969 Z"
       id="path66290"
       sodipodi:nodetypes="cscccccccccccccccc" /><path
       style="display:inline;opacity:1;fill:#3c3c3c;fill-opacity:1;stroke:#3c3c3c;stroke-width:2;stroke-linecap:round;stroke-dasharray:none;stroke-opacity:1;paint-order:stroke markers fill"
       d="M 103.89302,98.178338 C 111.8712,82.323658 123.16895,71.195252 133.2033,73.31743 118.26515,42.670088 92.79946,43.860865 65.072174,44.605029 L 49.238709,69.191804 43.968566,85.205617 43.103365,103.2256 c 0.744469,6.36161 1.836309,13.44959 4.878225,19.60234 3.670351,4.04747 6.766127,9.70374 11.381094,11.10629 6.5294,-2.31506 11.58596,-5.50492 20.856465,-7.97862 C 16.546319,114.53644 70.016777,36.443158 103.89302,98.178338 Z"
       id="path69963"
       sodipodi:nodetypes="cccccccccc" /><path
       style="opacity:1;fill:#3c3c3c;fill-opacity:1;stroke:#3c3c3c;stroke-width:2;stroke-linecap:round;stroke-dasharray:none;stroke-opacity:1;paint-order:stroke markers fill"
       d="m 162.5478,104.22671 c -2.56355,11.22155 -3.40764,20.55119 -16.45923,27.2485 -9.97336,1.43733 -14.30877,3.02622 -18.63178,-3.22579 -0.80161,-1.27901 -0.89337,-0.45565 1.74043,-0.88757 14.06299,-1.44774 22.17625,-8.36574 27.67435,-22.35649 z"
       id="path70407"
       sodipodi:nodetypes="cccccc" /><path
       style="display:inline;opacity:1;fill:none;fill-opacity:1;stroke:#ffffff;stroke-width:1.2;stroke-linecap:round;stroke-dasharray:none;stroke-opacity:1;paint-order:stroke markers fill"
       d="M 59.148305,134.9714 C 41.092903,123.50174 37.559954,96.258343 47.822035,69.2161 58.611626,52.900093 68.332578,38.45782 76.609639,27.585628 c 2.983733,3.775423 2.673153,6.865113 2.910223,10.640536 49.119478,-16.410026 68.536928,18.056313 74.570208,22.828937 18.16743,28.45739 9.08088,62.319079 -7.16317,71.713969 -4.44178,0.69699 -8.89597,1.38156 -14.15783,1.25847 -4.10063,-1.84442 -6.1735,-4.44924 -6.92162,-7.55085 20.31076,-0.55529 25.34256,-11.02127 30.51801,-21.39406 C 155.56239,75.786398 133.43061,69.238408 120.49894,78.025423 110.06258,86.340159 108.17678,90.829672 104.76801,100.04873 95.926584,90.174392 90.494493,77.187184 72.676905,75.508473 38.004558,82.811525 50.59895,125.40588 84.228921,125.19914 Z"
       id="path71953"
       sodipodi:nodetypes="cccccccccccccc" /><g
       inkscape:groupmode="layer"
       id="g71697"
       inkscape:label="OJO1 copia"
       transform="translate(53.17055,-0.31461863)"
       style="display:inline"><circle
         style="opacity:1;fill:#3c3c3c;fill-opacity:1;stroke:#f8945a;stroke-width:0;stroke-linecap:round;stroke-dasharray:none;stroke-opacity:1;paint-order:stroke markers fill"
         id="circle71691"
         cx="76.924255"
         cy="106.41976"
         r="12.6634" /><circle
         style="fill:#ffffff;fill-opacity:1;stroke:#f8945a;stroke-width:0;stroke-linecap:round;stroke-dasharray:none;stroke-opacity:1;paint-order:stroke markers fill"
         id="circle71693"
         cx="69.866997"
         cy="102.82211"
         r="3.542172" /><path
         style="opacity:1;fill:#ffffff;fill-opacity:1;stroke:#f8945a;stroke-width:0;stroke-linecap:round;stroke-dasharray:none;stroke-opacity:1;paint-order:stroke markers fill"
         d="m 75.1152,117.58872 c -2.99659,-0.46907 -6.45443,-0.85371 -8.20712,-5.59186 0.0651,-1.04339 1.22186,-1.77164 2.46533,-0.9758 2.92673,3.17659 4.77144,3.50057 6.56767,3.69676 0.80173,0.87889 1.11357,2.38934 -0.82588,2.8709 z"
         id="path71695"
         sodipodi:nodetypes="ccccc" /></g><g
       inkscape:groupmode="layer"
       id="layer18"
       inkscape:label="OJO1"
       style="display:inline"><circle
         style="opacity:1;fill:#3c3c3c;fill-opacity:1;stroke:#f8945a;stroke-width:0;stroke-linecap:round;stroke-dasharray:none;stroke-opacity:1;paint-order:stroke markers fill"
         id="path71496"
         cx="76.924255"
         cy="106.41976"
         r="12.6634" /><circle
         style="fill:#ffffff;fill-opacity:1;stroke:#f8945a;stroke-width:0;stroke-linecap:round;stroke-dasharray:none;stroke-opacity:1;paint-order:stroke markers fill"
         id="path71496-0"
         cx="83.55291"
         cy="101.87825"
         r="3.542172" /><path
         style="opacity:1;fill:#ffffff;fill-opacity:1;stroke:#f8945a;stroke-width:0;stroke-linecap:round;stroke-dasharray:none;stroke-opacity:1;paint-order:stroke markers fill"
         d="m 75.1152,117.58872 c -2.99659,-0.46907 -6.45443,-0.85371 -8.20712,-5.59186 0.0651,-1.04339 1.22186,-1.77164 2.46533,-0.9758 2.92673,3.17659 4.77144,3.50057 6.56767,3.69676 0.80173,0.87889 1.11357,2.38934 -0.82588,2.8709 z"
         id="path71667"
         sodipodi:nodetypes="ccccc" /></g><g
       inkscape:groupmode="layer"
       id="layer17"
       inkscape:label="PICO"
       style="display:inline"><path
         style="opacity:1;fill:#f8945a;fill-opacity:1;stroke:#f8945a;stroke-width:0;stroke-linecap:round;stroke-dasharray:none;stroke-opacity:1;paint-order:stroke markers fill"
         d="m 91.253106,123.38373 c -2.598401,-5.36787 -0.656887,-5.54741 0.890827,-7.11865 10.592267,-7.32129 18.362107,-3.44135 24.146977,0.61575 2.0038,1.48481 2.34688,3.51313 0.2753,6.3317 -2.34638,3.08262 -4.4614,6.3305 -8.80933,7.98344 -2.28732,0.83669 -5.21928,1.90599 -10.063924,-0.99877 -2.358575,-1.82085 -5.979211,-5.79448 -6.43985,-6.81347 z"
         id="path70412"
         sodipodi:nodetypes="ccccccc" /></g></g><g
     inkscape:groupmode="layer"
     id="layer13"
     inkscape:label="PIE DERECHO"
     style="display:inline"><path
       style="opacity:1;fill:#f8945a;fill-opacity:1;stroke:#f8945a;stroke-width:2;stroke-linecap:round;stroke-dasharray:none;stroke-opacity:1;paint-order:stroke markers fill"
       d="m 120.26298,207.56965 c -1.60671,-9.36139 8.54315,-14.76005 23.43908,-17.85461 7.61522,-0.89525 14.48462,0.18372 18.5625,8.65201 1.6931,7.46164 1.91398,14.07921 -11.87685,12.6634 -4.44047,4.41075 -12.28074,5.76634 -16.12421,-0.70789 -5.09293,1.69124 -10.99944,3.91915 -14.00052,-2.75291 z"
       id="path66611"
       sodipodi:nodetypes="cccccc" /></g><g
     inkscape:groupmode="layer"
     id="layer14"
     inkscape:label="PIE IZQUIERDO"
     style="display:inline"><path
       style="opacity:1;fill:#f8945a;fill-opacity:1;stroke:#f8945a;stroke-width:2;stroke-linecap:round;stroke-dasharray:none;stroke-opacity:1;paint-order:stroke markers fill"
       d="m 49.165644,202.66924 c 6.462893,-19.12849 30.735472,-12.33216 42.046636,0 0.931553,6.18704 -1.788028,9.72701 -12.680733,7.34147 -4.849109,2.43744 -8.827135,8.40277 -16.462703,-0.44494 -12.251165,2.11788 -11.874729,-1.96386 -12.9032,-6.89653 z"
       id="path69223"
       sodipodi:nodetypes="ccccc" /></g></svg>
